<svg xmlns="http://www.w3.org/2000/svg" width="81.737" height="86.089" viewBox="0 0 81.737 86.089">
  <defs>
    <style>
      .facts-1-1 {
        fill: #fff;
      }
    </style>
  </defs>
  <g id="Gruppe_41534" data-name="Gruppe 41534" transform="translate(-0.298 -0.298)">
    <path id="Pfad_170113" data-name="Pfad 170113" class="facts-1-1" d="M168.8,166.659a.75.75,0,0,1,.419.128l9.892,6.667a.75.75,0,0,1,.24.981l-2.621,4.816a.75.75,0,0,1-1.063.273l-10.054-6.438a.75.75,0,0,1-.252-.994l2.783-5.044a.75.75,0,0,1,.657-.388Zm8.907,7.657-8.647-5.827-2.047,3.711,8.784,5.625Z" transform="translate(-133.754 -134.875)"/>
    <path id="Linie_479" data-name="Linie 479" class="facts-1-1" d="M0,17.107a.747.747,0,0,1-.361-.093A.75.75,0,0,1-.657,16L8.336-.361a.75.75,0,0,1,1.019-.3A.75.75,0,0,1,9.65.361L.657,16.718A.75.75,0,0,1,0,17.107Z" transform="translate(44.219 22.351)"/>
    <path id="Pfad_170114" data-name="Pfad 170114" class="facts-1-1" d="M186.588,49.989a.75.75,0,0,1-.656-1.112l16.09-29.19a.75.75,0,0,1,1.038-.284l8.233,4.865a.75.75,0,0,1,.276,1.007l-3.392,6.167a.75.75,0,0,1-1.314-.723l3.042-5.53-6.941-4.1L187.245,49.6A.75.75,0,0,1,186.588,49.989Z" transform="translate(-150.359 -15.909)"/>
    <g id="Gruppe_41533" data-name="Gruppe 41533" transform="translate(1.048 1.048)">
      <g id="Gruppe_41535" data-name="Gruppe 41535">
        <path id="Pfad_170115" data-name="Pfad 170115" class="facts-1-1" d="M283.364,12.031a.75.75,0,0,1-.659-1.107l1.768-3.265-4.226-2.61-1.838,3.282A.75.75,0,1,1,277.1,7.6l2.221-3.965a.75.75,0,0,1,1.048-.272l5.5,3.393a.75.75,0,0,1,.265,1l-2.105,3.888A.75.75,0,0,1,283.364,12.031Z" transform="translate(-225.006 -4)"/>
        <path id="Pfad_170116" data-name="Pfad 170116" class="facts-1-1" d="M260.344,79.293a5.088,5.088,0,1,1,5.088-5.088A5.093,5.093,0,0,1,260.344,79.293Zm0-8.675a3.588,3.588,0,1,0,3.588,3.588A3.592,3.592,0,0,0,260.344,70.618Z" transform="translate(-207.448 -57.176)"/>
        <path id="Linie_480" data-name="Linie 480" class="facts-1-1" d="M18.133,10.491a.747.747,0,0,1-.354-.089L-.355.661A.75.75,0,0,1-.661-.355.75.75,0,0,1,.355-.661L18.488,9.08a.75.75,0,0,1-.356,1.411Z" transform="translate(22.209 44.281)"/>
        <path id="Pfad_170117" data-name="Pfad 170117" class="facts-1-1" d="M282.208,169.629a.75.75,0,0,1-.632-1.153,18.31,18.31,0,0,0,2.6-7.5,17.848,17.848,0,0,0-.976-8.477c-1.357-3.552-4.626-8.249-12.491-10.459a.75.75,0,0,1,.406-1.444c8.465,2.379,12.006,7.5,13.486,11.368a19.352,19.352,0,0,1,1.064,9.193,19.562,19.562,0,0,1-2.826,8.127A.75.75,0,0,1,282.208,169.629Z" transform="translate(-219.484 -114.857)"/>
        <path id="Pfad_170118" data-name="Pfad 170118" class="facts-1-1" d="M307.723,122.819a.75.75,0,0,1-.5-1.313,28.329,28.329,0,0,0,7.715-11.065,27.529,27.529,0,0,0-.1-20.142,29.4,29.4,0,0,0-3.629-6.522,37.753,37.753,0,0,0-13.453-11.07.75.75,0,1,1,.685-1.334,39.233,39.233,0,0,1,13.977,11.517,30.9,30.9,0,0,1,3.813,6.856,29.029,29.029,0,0,1,.1,21.235,29.835,29.835,0,0,1-8.125,11.653A.747.747,0,0,1,307.723,122.819Z" transform="translate(-241.438 -58.929)"/>
        <path id="Pfad_170119" data-name="Pfad 170119" class="facts-1-1" d="M133.686,257.672a.747.747,0,0,1-.352-.088l-11.189-5.97a.75.75,0,0,1-.3-1.031l3.383-5.97a.75.75,0,0,1,1.305.739l-3,5.3,9.864,5.263,2.99-5.309a.75.75,0,1,1,1.307.736l-3.35,5.948A.75.75,0,0,1,133.686,257.672Z" transform="translate(-99.665 -198.548)"/>
        <path id="Pfad_170120" data-name="Pfad 170120" class="facts-1-1" d="M196.159,315.622a19.8,19.8,0,0,1-4.831-.628,20.289,20.289,0,0,1-5.617-2.372,21.376,21.376,0,0,1-5.737-5.215.75.75,0,0,1,1.188-.915,19.892,19.892,0,0,0,5.3,4.831,18.788,18.788,0,0,0,5.176,2.2,16.926,16.926,0,0,0,5.528.555.75.75,0,0,1,.173,1.49A11.013,11.013,0,0,1,196.159,315.622Z" transform="translate(-146.546 -248.576)"/>
        <path id="Pfad_170121" data-name="Pfad 170121" class="facts-1-1" d="M286,322.03H270.914a.75.75,0,0,1-.75-.75V309.651a8.291,8.291,0,1,1,16.582,0V321.28A.75.75,0,0,1,286,322.03Zm-14.332-1.5h13.582V309.651a6.791,6.791,0,1,0-13.582,0Z" transform="translate(-219.484 -244.669)"/>
        <path id="Pfad_170122" data-name="Pfad 170122" class="facts-1-1" d="M182.065,410.327H125.178a.75.75,0,0,1-.75-.75v-4.611a4.122,4.122,0,0,1,4.118-4.118H178.7a4.122,4.122,0,0,1,4.118,4.118v4.611A.75.75,0,0,1,182.065,410.327Zm-56.137-1.5h55.387v-3.861a2.621,2.621,0,0,0-2.618-2.618H128.546a2.621,2.621,0,0,0-2.618,2.618Z" transform="translate(-101.829 -324.987)"/>
        <path id="Ellipse_180" data-name="Ellipse 180" class="facts-1-1" d="M2.241-.75A2.991,2.991,0,1,1-.75,2.241,2.995,2.995,0,0,1,2.241-.75Zm0,4.483A1.491,1.491,0,1,0,.75,2.241,1.493,1.493,0,0,0,2.241,3.733Z" transform="translate(56.73 63.14)"/>
        <path id="Pfad_170123" data-name="Pfad 170123" class="facts-1-1" d="M44.461,75.809q-.094,0-.189-.006-.037,0-.074-.008c-1.045-.167-1.827-1.351-2.537-3.84-.513-1.8-.882-3.905-1.151-5.444-.138-.787-.268-1.53-.338-1.741a8.527,8.527,0,0,0-.545-.934c-1.325-2.113-4.082-6.511-1.5-10.552a7.687,7.687,0,0,1,2.764-2.671,7.143,7.143,0,0,1,3.281-.853,12.65,12.65,0,0,1,6.07,1.612l.688-.275c2.55-1.022,5.186-2.079,7.281-1.27a8.628,8.628,0,0,1,2.73,1.7,7.294,7.294,0,0,1,2.051,3.211,8.38,8.38,0,0,1,.081,4.4,16.968,16.968,0,0,1-2.648,5.632,15.121,15.121,0,0,0-.4,2.206,31.068,31.068,0,0,1-1.044,5.146c-.933,2.8-1.814,3.759-3.369,3.672a4.092,4.092,0,0,1-2.564-1.763A9.331,9.331,0,0,1,51.2,69.72a13.046,13.046,0,0,0-.678-2.962c-.1-.188-.133-.244-.391-.269-.744.287-.873,1.061-.873,2.62a9.3,9.3,0,0,1-2.393,5.673A3.489,3.489,0,0,1,44.461,75.809Zm-.041-1.5a1.962,1.962,0,0,0,1.421-.617,7.9,7.9,0,0,0,1.922-4.581,7.54,7.54,0,0,1,.248-2.31,2.6,2.6,0,0,1,1.815-1.788.751.751,0,0,1,.25-.03,1.9,1.9,0,0,1,1.79,1.1,12.584,12.584,0,0,1,.821,3.4,7.988,7.988,0,0,0,1.538,3.626A3.071,3.071,0,0,0,55.692,74.3c.428.024.962.053,1.863-2.649a29.978,29.978,0,0,0,.982-4.885,8.332,8.332,0,0,1,.631-2.814l0-.007a15.524,15.524,0,0,0,2.436-5.138,6.906,6.906,0,0,0-.051-3.622,6.566,6.566,0,0,0-3.889-3.959c-1.544-.6-3.9.349-6.183,1.263a16.162,16.162,0,0,1-5.021,1.457.75.75,0,0,1-.049-1.5,7.225,7.225,0,0,0,1.814-.35,10.269,10.269,0,0,0-4.021-.838,5.66,5.66,0,0,0-4.82,2.832c-2.07,3.241.258,6.953,1.508,8.948a6.964,6.964,0,0,1,.7,1.256,18.314,18.314,0,0,1,.393,1.957c.264,1.506.625,3.568,1.116,5.291C43.781,73.92,44.325,74.265,44.42,74.308Z" transform="translate(-31.299 -41.372)"/>
        <path id="Pfad_170124" data-name="Pfad 170124" class="facts-1-1" d="M9.953,214.6H14.9a.75.75,0,0,1,.75.75v5.2h5.2a.75.75,0,0,1,.75.75v4.95a.75.75,0,0,1-.75.75h-5.2v5.2a.75.75,0,0,1-.75.75H9.953a.75.75,0,0,1-.75-.75V227H4a.75.75,0,0,1-.75-.75V221.3a.75.75,0,0,1,.75-.75H9.2v-5.2A.75.75,0,0,1,9.953,214.6Zm4.2,1.5H10.7v5.2a.75.75,0,0,1-.75.75H4.75v3.45h5.2a.75.75,0,0,1,.75.75v5.2h3.45v-5.2a.75.75,0,0,1,.75-.75h5.2v-3.45H14.9a.75.75,0,0,1-.75-.75Z" transform="translate(-4 -174.626)"/>
      </g>
    </g>
  </g>
</svg>
