<svg xmlns="http://www.w3.org/2000/svg" width="82.087" height="83.661" viewBox="0 0 82.087 83.661">
  <defs>
    <style>
      .facts-3-1 {
        fill: #fff;
      }
    </style>
  </defs>
  <g id="Gruppe_41539" data-name="Gruppe 41539" transform="translate(-0.099 -0.099)">
    <g id="Gruppe_41540" data-name="Gruppe 41540" transform="translate(0.849 0.849)">
      <path id="Pfad_170131" data-name="Pfad 170131" class="facts-3-1" d="M210.233,32.681a.75.75,0,0,1-.748-.7A15.215,15.215,0,0,0,196.9,17.954a.75.75,0,0,1,0-1.478,15.28,15.28,0,0,0,8.725-4.829,15.281,15.281,0,0,0,3.86-9.195.75.75,0,0,1,1.5,0,15.28,15.28,0,0,0,3.86,9.195,15.28,15.28,0,0,0,8.725,4.829.75.75,0,0,1,0,1.478,15.215,15.215,0,0,0-12.585,14.024A.75.75,0,0,1,210.233,32.681ZM199.946,17.215A16.686,16.686,0,0,1,210.233,27.9,16.686,16.686,0,0,1,220.52,17.215a16.79,16.79,0,0,1-6.8-4.566,16.771,16.771,0,0,1-3.492-6.122,16.773,16.773,0,0,1-3.492,6.122A16.791,16.791,0,0,1,199.946,17.215Z" transform="translate(-142.851 -2.5)"/>
      <path id="Pfad_170132" data-name="Pfad 170132" class="facts-3-1" d="M11.783,250.159a.75.75,0,0,1-.748-.7,8.863,8.863,0,0,0-2.63-5.609,10.915,10.915,0,0,0-6.021-2.986.75.75,0,0,1,0-1.482A10.915,10.915,0,0,0,8.406,236.4a8.863,8.863,0,0,0,2.63-5.609.75.75,0,0,1,1.5,0,8.863,8.863,0,0,0,2.63,5.609,10.914,10.914,0,0,0,6.021,2.986.75.75,0,0,1,0,1.482,10.914,10.914,0,0,0-6.021,2.986,8.863,8.863,0,0,0-2.63,5.609A.75.75,0,0,1,11.783,250.159Zm-6.43-10.033a12.059,12.059,0,0,1,4.113,2.667,10.707,10.707,0,0,1,2.317,3.438,10.708,10.708,0,0,1,2.317-3.438,12.058,12.058,0,0,1,4.113-2.667,12.058,12.058,0,0,1-4.113-2.667,10.708,10.708,0,0,1-2.317-3.438,10.707,10.707,0,0,1-2.317,3.438A12.058,12.058,0,0,1,5.353,240.125Z" transform="translate(-2.5 -167.247)"/>
      <path id="Pfad_170133" data-name="Pfad 170133" class="facts-3-1" d="M89.968,94.639a4.4,4.4,0,0,1-1.1-.141,4.824,4.824,0,0,1-2.521-1.689,6.94,6.94,0,0,1-1.31-2.677,16.672,16.672,0,0,1-.312-4.434c.007-.338.014-.688.015-1.028A32.348,32.348,0,0,0,82.06,71.7c-.915-2.1-1.9-3.2-3.11-3.463a3.143,3.143,0,0,0-2.778.915,9.29,9.29,0,0,0-2.158,3.032,28.362,28.362,0,0,0-2.593,12.945q.011.28.024.567c.113,2.607.241,5.563-1.835,7.4a4.719,4.719,0,0,1-3.68,1.112,7.07,7.07,0,0,1-4.772-2.664c-1.784-2.327-2.209-5.255-2.62-8.087l-.031-.213a107.989,107.989,0,0,0-4.874-20.69c-.612-1.726-1.3-3.468-1.956-5.152a87.619,87.619,0,0,1-3.459-9.98,32.184,32.184,0,0,1-1.092-8.151,20.713,20.713,0,0,1,1.563-8.057,15.769,15.769,0,0,1,5.217-6.534,12.2,12.2,0,0,1,7.868-2.443c3.02.176,5.723,1.584,8.337,2.946,2.528,1.317,4.916,2.561,7.521,2.743,2.891.2,5.475-1.295,8.211-2.879a23.2,23.2,0,0,1,6.674-2.978,12.5,12.5,0,0,1,8.3,1.287.75.75,0,0,1-.692,1.331,11,11,0,0,0-7.293-1.15,22.1,22.1,0,0,0-6.232,2.809c-2.81,1.627-5.717,3.31-9.067,3.077-2.917-.2-5.556-1.579-8.109-2.909-2.588-1.348-5.032-2.621-7.731-2.779a10.724,10.724,0,0,0-6.9,2.163,14.248,14.248,0,0,0-4.714,5.9,19.226,19.226,0,0,0-1.443,7.477,30.688,30.688,0,0,0,1.044,7.768,86.491,86.491,0,0,0,3.4,9.807c.666,1.7,1.354,3.449,1.974,5.2a109.457,109.457,0,0,1,4.944,20.975l.031.213c.383,2.641.779,5.373,2.325,7.389a5.6,5.6,0,0,0,3.725,2.085,3.3,3.3,0,0,0,2.542-.742c1.541-1.365,1.434-3.83,1.331-6.214q-.013-.29-.024-.575a29.87,29.87,0,0,1,2.731-13.634c1.27-2.732,3.675-5.422,6.618-4.781,2.256.5,3.456,2.708,4.163,4.328a33.86,33.86,0,0,1,2.8,13.571c0,.352-.009.707-.015,1.051a15.317,15.317,0,0,0,.267,4.04,4.383,4.383,0,0,0,2.751,3.278c1.559.4,3.938-.695,5.476-4.053,1.605-3.508,2.124-7.3,2.672-11.3.29-2.119.59-4.311,1.066-6.435a76.6,76.6,0,0,1,4.45-12.689q.326-.78.651-1.56c1.841-4.435,3.689-9.179,4.285-14.136a23.759,23.759,0,0,0-.247-7.534.75.75,0,1,1,1.47-.3,25.255,25.255,0,0,1,.266,8.01c-.619,5.146-2.508,10-4.389,14.532q-.324.782-.652,1.564a75.471,75.471,0,0,0-4.37,12.438c-.462,2.062-.758,4.222-1.043,6.311-.539,3.941-1.1,8.015-2.794,11.725C94.873,92.254,92.591,94.638,89.968,94.639Z" transform="translate(-35.239 -16.993)"/>
      <path id="Pfad_170134" data-name="Pfad 170134" class="facts-3-1" d="M74.439,65.554a.75.75,0,0,1-.747-.69,6.85,6.85,0,0,1,3.21-6.272.75.75,0,1,1,.777,1.283,5.318,5.318,0,0,0-2.492,4.869.75.75,0,0,1-.688.807Z" transform="translate(-54.391 -43.433)"/>
      <path id="Pfad_170135" data-name="Pfad 170135" class="facts-3-1" d="M80.852,122.1a.749.749,0,0,1-.634-.348,35.511,35.511,0,0,1-4.895-12.507.75.75,0,0,1,1.476-.27,34,34,0,0,0,4.686,11.974.75.75,0,0,1-.633,1.152Z" transform="translate(-55.574 -79.421)"/>
    </g>
  </g>
</svg>
