<svg id="Gruppe_41554" data-name="Gruppe 41554" xmlns="http://www.w3.org/2000/svg" xmlns:xlink="http://www.w3.org/1999/xlink" width="79.295" height="81.592" viewBox="0 0 79.295 81.592">
  <defs>
    <style>
      .facts-2-1, .facts-2-3 {
        fill: #fff;
      }

      .facts-2-1 {
        stroke: #fff;
        stroke-width: 0.2px;
      }

      .facts-2-2 {
        clip-path: url(#clip-path);
      }
    </style>
    <clipPath id="clip-path">
      <rect id="Rechteck_28417" data-name="Rechteck 28417" class="facts-2-1" width="79.295" height="81.592" transform="translate(0 0)"/>
    </clipPath>
  </defs>
  <g id="Gruppe_41554-2" data-name="Gruppe 41554" class="facts-2-2">
    <path id="Pfad_170136" data-name="Pfad 170136" class="facts-2-3" d="M12.97,23.752a.5.5,0,0,0-.42-.56l-3.88-.56-1.74-3.52a.544.544,0,0,0-.22-.23.585.585,0,0,0-.22-.05.415.415,0,0,0-.16.03.48.48,0,0,0-.29.25l-1.73,3.52-3.89.56a.551.551,0,0,0-.28.15.5.5,0,0,0-.14.35.485.485,0,0,0,.15.35l2.81,2.74-.67,3.87a.472.472,0,0,0,.06.31.48.48,0,0,0,.29.25.527.527,0,0,0,.37-.04l3.48-1.83,3.48,1.83a.465.465,0,0,0,.23.06.508.508,0,0,0,.48-.58l-.66-3.87,2.81-2.74a.528.528,0,0,0,.14-.29m-3.83,2.5a.506.506,0,0,0-.14.44l.54,3.14-2.82-1.48a.465.465,0,0,0-.23-.06v-.35l-.01-.01v.35a.977.977,0,0,0-.23.06l-2.82,1.49.54-3.14a.479.479,0,0,0-.14-.44l-2.28-2.22,3.15-.46a.472.472,0,0,0,.37-.27l1.42-2.85L7.9,23.3a.472.472,0,0,0,.37.27l3.15.46Z"/>
    <path id="Pfad_170136_-_Kontur" data-name="Pfad 170136 - Kontur" class="facts-2-3" d="M6.49,18.732a.68.68,0,0,1,.259.058l.009,0a.645.645,0,0,1,.261.273l1.717,3.473,3.828.552a.6.6,0,0,1,.392.233.585.585,0,0,1,.113.438.617.617,0,0,1-.164.344l-.005.006-2.772,2.7.651,3.818a.552.552,0,0,1-.089.419.709.709,0,0,1-.473.276H10.2a.564.564,0,0,1-.28-.073l-3.43-1.8L3.057,31.261a.633.633,0,0,1-.441.049H2.611a.581.581,0,0,1-.347-.3.565.565,0,0,1-.073-.369v-.008l.661-3.818L.08,24.114a.587.587,0,0,1-.18-.422.6.6,0,0,1,.169-.421A.655.655,0,0,1,.4,23.094H.406l3.838-.552L5.95,19.068a.582.582,0,0,1,.346-.3A.514.514,0,0,1,6.49,18.732Zm.176.24a.481.481,0,0,0-.176-.04.316.316,0,0,0-.123.023l-.008,0a.378.378,0,0,0-.23.2L4.376,22.723l-3.939.567a.453.453,0,0,0-.226.122.4.4,0,0,0-.111.279.385.385,0,0,0,.121.279l2.847,2.776-.678,3.918a.37.37,0,0,0,.044.242l.006.011a.378.378,0,0,0,.228.2.431.431,0,0,0,.3-.031L6.49,29.229l3.527,1.854a.367.367,0,0,0,.175.048.509.509,0,0,0,.334-.192.35.35,0,0,0,.056-.27l-.669-3.923,2.845-2.774a.436.436,0,0,0,.113-.23v-.006a.387.387,0,0,0-.075-.291.4.4,0,0,0-.261-.155L8.6,22.723,6.84,19.156A.443.443,0,0,0,6.666,18.972ZM6.49,20.227l1.5,3.031a.373.373,0,0,0,.293.215l3.353.49L9.21,26.324a.4.4,0,0,0-.111.35l.575,3.341-3-1.574a.368.368,0,0,0-.184-.049H6.429a.992.992,0,0,0-.138.041L3.3,30.015l.574-3.34a.379.379,0,0,0-.109-.349L1.335,23.962l3.35-.489a.372.372,0,0,0,.294-.213ZM11.205,24.1l-2.95-.431a.569.569,0,0,1-.446-.327L6.49,20.677l-1.33,2.67a.569.569,0,0,1-.447.325l-2.947.43L3.9,26.18a.578.578,0,0,1,.169.53l-.505,2.938,2.652-1.4a1.216,1.216,0,0,1,.165-.05v-.507l.21.21v.3a.556.556,0,0,1,.18.064l2.638,1.384L8.9,26.709a.6.6,0,0,1,.168-.528Z"/>
    <path id="Pfad_170137" data-name="Pfad 170137" class="facts-2-3" d="M30.32,14.252a.5.5,0,0,0-.42-.56l-4.86-.71-2.16-4.41a.544.544,0,0,0-.23-.22.5.5,0,0,0-.38-.03.57.57,0,0,0-.28.25l-2.17,4.4-4.86.71a.47.47,0,0,0-.28.14.518.518,0,0,0-.14.35.509.509,0,0,0,.15.35l3.51,3.43-.83,4.83a.508.508,0,0,0,.05.32.5.5,0,0,0,.67.2l4.34-2.28,4.34,2.28a.465.465,0,0,0,.23.06v.01a.5.5,0,0,0,.49-.58l-.83-4.83,3.51-3.43a.482.482,0,0,0,.15-.28m-4.54,3.19a.506.506,0,0,0-.14.44l.71,4.1-3.69-1.94a.471.471,0,0,0-.46,0l-3.68,1.94.7-4.1a.506.506,0,0,0-.14-.44l-2.98-2.91,4.12-.6a.472.472,0,0,0,.37-.27l1.84-3.74,1.84,3.74a.488.488,0,0,0,.38.27l4.11.6Z"/>
    <path id="Pfad_170137_-_Kontur" data-name="Pfad 170137 - Kontur" class="facts-2-3" d="M22.425,8.2a.6.6,0,0,1,.269.065.645.645,0,0,1,.273.261l0,0,2.137,4.363,4.808.7a.6.6,0,0,1,.5.674.581.581,0,0,1-.181.339L26.767,18l.821,4.778a.556.556,0,0,1-.095.43.7.7,0,0,1-.48.266l-.114.016v-.034a.556.556,0,0,1-.18-.064l-4.29-2.254-4.293,2.256a.594.594,0,0,1-.8-.241.61.61,0,0,1-.06-.386l.821-4.777L14.62,14.594a.611.611,0,0,1-.18-.422.617.617,0,0,1,.166-.417l0,0a.568.568,0,0,1,.341-.169l4.8-.7L21.9,8.528a.67.67,0,0,1,.331-.3l.009,0A.628.628,0,0,1,22.425,8.2Zm.366.42a.443.443,0,0,0-.186-.177.4.4,0,0,0-.3-.025.467.467,0,0,0-.226.2l-2.191,4.443-4.912.718a.37.37,0,0,0-.222.11.42.42,0,0,0-.113.281.412.412,0,0,0,.121.279l3.547,3.466L17.469,22.8a.41.41,0,0,0,.041.258.394.394,0,0,0,.533.157l4.388-2.305,4.387,2.3a.368.368,0,0,0,.183.049h.046a.474.474,0,0,0,.285-.174.358.358,0,0,0,.06-.278l-.839-4.883,3.552-3.47a.38.38,0,0,0,.117-.223.385.385,0,0,0-.075-.288.4.4,0,0,0-.261-.155l-4.912-.718ZM22.43,9.7l1.93,3.922a.39.39,0,0,0,.3.215l4.313.63L25.85,17.514a.405.405,0,0,0-.112.35l.745,4.3-3.87-2.034a.374.374,0,0,0-.364,0l-3.862,2.036.734-4.3a.406.406,0,0,0-.112-.352l-3.124-3.051,4.32-.629a.372.372,0,0,0,.294-.213ZM28.545,14.6l-3.91-.571a.587.587,0,0,1-.454-.322L22.43,10.149l-1.75,3.558a.569.569,0,0,1-.447.325l-3.918.571L19.15,17.37a.6.6,0,0,1,.168.53l-.666,3.9,3.5-1.845a.571.571,0,0,1,.556,0L26.217,21.8l-.675-3.9a.6.6,0,0,1,.168-.528Z"/>
    <path id="Pfad_170138" data-name="Pfad 170138" class="facts-2-3" d="M79.29,23.752a.5.5,0,0,0-.1-.37.483.483,0,0,0-.32-.19l-3.88-.56-1.74-3.52a.544.544,0,0,0-.22-.23.46.46,0,0,0-.38-.02.48.48,0,0,0-.29.25l-1.74,3.52-3.88.56a.619.619,0,0,0-.28.14.5.5,0,0,0,.01.71l2.81,2.73-.66,3.87a.5.5,0,0,0,.04.32.511.511,0,0,0,.3.24.476.476,0,0,0,.37-.03l3.48-1.83,3.47,1.83a.865.865,0,0,0,.23.06v-.01a.517.517,0,0,0,.49-.58l-.67-3.87,2.81-2.74a.482.482,0,0,0,.15-.28m-3.83,2.5a.506.506,0,0,0-.14.44l.53,3.13-2.82-1.48a.865.865,0,0,0-.23-.06.6.6,0,0,0-.23.06l-2.82,1.49.54-3.14a.479.479,0,0,0-.14-.44l-2.28-2.22,3.15-.46a.472.472,0,0,0,.37-.27l1.42-2.85,1.41,2.85a.472.472,0,0,0,.37.27l3.15.46Z"/>
    <path id="Pfad_170138_-_Kontur" data-name="Pfad 170138 - Kontur" class="facts-2-3" d="M72.814,18.73a.587.587,0,0,1,.261.063.647.647,0,0,1,.265.275l1.717,3.473,3.828.552a.586.586,0,0,1,.388.232.6.6,0,0,1,.117.443.58.58,0,0,1-.181.338l-2.77,2.7.661,3.818a.58.58,0,0,1-.107.437.67.67,0,0,1-.381.242v.041l-.112-.014a.966.966,0,0,1-.257-.067l-.007,0L72.81,29.455l-3.433,1.805a.583.583,0,0,1-.448.036.609.609,0,0,1-.355-.284l0-.006a.606.606,0,0,1-.049-.383l.651-3.817L66.4,24.114a.606.606,0,0,1-.013-.851l.007-.006a.718.718,0,0,1,.326-.163h.005l3.828-.552,1.717-3.473a.582.582,0,0,1,.346-.3A.523.523,0,0,1,72.814,18.73Zm3.663,12.4.019,0a.49.49,0,0,0,.335-.181.381.381,0,0,0,.07-.286l-.679-3.919,2.852-2.78a.38.38,0,0,0,.117-.223.4.4,0,0,0-.082-.293.383.383,0,0,0-.254-.15l-3.931-.567L73.16,19.156a.442.442,0,0,0-.179-.187.367.367,0,0,0-.293-.015l-.009,0a.378.378,0,0,0-.23.2l-1.763,3.567-3.929.567a.515.515,0,0,0-.228.114.406.406,0,0,0,.011.567l2.847,2.766-.669,3.922a.4.4,0,0,0,.029.256.41.41,0,0,0,.241.192.375.375,0,0,0,.293-.022l3.528-1.855,3.513,1.853A.734.734,0,0,0,76.476,31.126Zm-3.666-10.9,1.5,3.031a.373.373,0,0,0,.293.215l3.353.49L75.53,26.324a.4.4,0,0,0-.111.35L75.982,30l-3-1.572a.759.759,0,0,0-.187-.05.491.491,0,0,0-.18.046l-3,1.587.574-3.34a.379.379,0,0,0-.109-.349l-2.427-2.363,3.35-.489a.372.372,0,0,0,.294-.213ZM77.525,24.1l-2.95-.431a.569.569,0,0,1-.446-.327l-1.32-2.667-1.33,2.67a.569.569,0,0,1-.447.325l-2.947.43L70.22,26.18a.579.579,0,0,1,.169.53l-.505,2.938,2.64-1.4a.691.691,0,0,1,.264-.071l.012,0,.012,0a.966.966,0,0,1,.257.067l.007,0,2.641,1.386-.5-2.931a.6.6,0,0,1,.168-.527Z"/>
    <path id="Pfad_170139" data-name="Pfad 170139" class="facts-2-3" d="M64.76,14.242a.483.483,0,0,0-.42-.56l-4.85-.71-2.17-4.4a.544.544,0,0,0-.23-.22.5.5,0,0,0-.66.22l-2.17,4.4-4.85.71a.469.469,0,0,0-.29.14.518.518,0,0,0-.14.35.558.558,0,0,0,.15.35l3.51,3.43-.83,4.83a.508.508,0,0,0,.05.32.5.5,0,0,0,.67.2l4.34-2.28,4.34,2.28a.533.533,0,0,0,.24.06.517.517,0,0,0,.49-.58l-.83-4.83,3.51-3.43a.533.533,0,0,0,.14-.28m-4.53,3.19a.471.471,0,0,0-.14.44l.7,4.09-3.68-1.93a.471.471,0,0,0-.46,0l-3.69,1.93.71-4.1a.493.493,0,0,0-.15-.43l-2.98-2.91,4.12-.6a.472.472,0,0,0,.37-.27l1.85-3.74,1.84,3.74a.494.494,0,0,0,.37.27l4.12.6Z"/>
    <path id="Pfad_170139_-_Kontur" data-name="Pfad 170139 - Kontur" class="facts-2-3" d="M56.874,8.2a.579.579,0,0,1,.261.061.645.645,0,0,1,.273.261l2.149,4.357,4.8.7a.585.585,0,0,1,.4.23.6.6,0,0,1,.108.442.635.635,0,0,1-.164.333l-.005.006-3.472,3.393.821,4.778a.58.58,0,0,1-.108.437.694.694,0,0,1-.467.259H61.45a.634.634,0,0,1-.285-.071l-4.3-2.256-4.293,2.256a.594.594,0,0,1-.8-.241.61.61,0,0,1-.06-.386l.821-4.777L49.06,14.594a.66.66,0,0,1-.18-.414v-.008a.617.617,0,0,1,.166-.417l0,0a.567.567,0,0,1,.349-.169l4.8-.7L56.34,8.528A.6.6,0,0,1,56.874,8.2Zm7.674,6.252a.43.43,0,0,0,.113-.221v-.005a.383.383,0,0,0-.336-.446l-4.9-.718L57.23,8.616a.44.44,0,0,0-.185-.175.38.38,0,0,0-.172-.04.4.4,0,0,0-.354.216l-2.193,4.447-4.907.718a.369.369,0,0,0-.226.109.42.42,0,0,0-.113.277.457.457,0,0,0,.121.283l3.547,3.466L51.909,22.8a.41.41,0,0,0,.041.258.394.394,0,0,0,.533.157l4.388-2.305,4.387,2.3a.436.436,0,0,0,.187.048.487.487,0,0,0,.328-.18.381.381,0,0,0,.07-.286L61,17.917ZM56.88,9.686l1.929,3.922a.4.4,0,0,0,.293.215l4.322.629L60.3,17.5a.371.371,0,0,0-.111.351l.734,4.29-3.859-2.024a.374.374,0,0,0-.364,0l-3.873,2.026.745-4.3a.39.39,0,0,0-.119-.339l-3.127-3.054,4.32-.629a.372.372,0,0,0,.294-.213ZM63,14.592l-3.92-.571a.591.591,0,0,1-.445-.324L56.88,10.138,55.12,13.7a.569.569,0,0,1-.447.325l-3.918.571L53.59,17.36a.588.588,0,0,1,.179.514l-.676,3.905L56.6,19.943a.583.583,0,0,1,.553,0l3.5,1.836-.666-3.891a.57.57,0,0,1,.171-.531Z"/>
    <path id="Pfad_170140" data-name="Pfad 170140" class="facts-2-3" d="M48.88,6.912a.5.5,0,0,0-.1-.37.507.507,0,0,0-.32-.19l-5.79-.84L40.09.272a.469.469,0,0,0-.22-.22.46.46,0,0,0-.38-.02.478.478,0,0,0-.28.24l-2.59,5.24-5.78.84a.482.482,0,0,0-.28.15.492.492,0,0,0,.01.7l4.18,4.07-.99,5.75a.538.538,0,0,0,.05.31.508.508,0,0,0,.29.25.461.461,0,0,0,.38-.04l5.17-2.71,5.17,2.71a.465.465,0,0,0,.23.06v.01a.548.548,0,0,0,.4-.21.493.493,0,0,0,.09-.37l-.99-5.76L48.73,7.2a.542.542,0,0,0,.15-.29m-5.21,3.84a.479.479,0,0,0-.14.44l.86,5.02-4.51-2.37a.465.465,0,0,0-.23-.06v-.01a.465.465,0,0,0-.23.06L34.91,16.2l.86-5.02a.479.479,0,0,0-.14-.44l-3.65-3.56,5.04-.73a.472.472,0,0,0,.37-.27l2.26-4.57,2.26,4.57a.472.472,0,0,0,.37.27l5.04.74Z"/>
    <path id="Pfad_170140_-_Kontur" data-name="Pfad 170140 - Kontur" class="facts-2-3" d="M39.654-.1a.587.587,0,0,1,.261.063.571.571,0,0,1,.267.269l2.555,5.189,5.738.832a.6.6,0,0,1,.5.674.647.647,0,0,1-.178.345l-4.143,4.034.981,5.708a.6.6,0,0,1-.108.446.653.653,0,0,1-.467.25l-.114.016v-.034a.556.556,0,0,1-.18-.064l-5.12-2.684-5.124,2.686a.564.564,0,0,1-.456.047.606.606,0,0,1-.35-.3.628.628,0,0,1-.06-.364v-.008l.981-5.7L30.5,7.274a.583.583,0,0,1-.181-.419.591.591,0,0,1,.168-.421.578.578,0,0,1,.335-.18l5.732-.833L39.12.228a.578.578,0,0,1,.335-.289A.523.523,0,0,1,39.654-.1ZM45.1,17.5a.419.419,0,0,0,.27-.157.393.393,0,0,0,.073-.3l-1-5.81L48.66,7.13a.439.439,0,0,0,.121-.236.4.4,0,0,0-.337-.443L42.6,5.6,40,.316a.371.371,0,0,0-.175-.175.364.364,0,0,0-.3-.017l-.007,0A.379.379,0,0,0,39.3.313L36.686,5.6l-5.832.848a.377.377,0,0,0-.219.117l0,0a.39.39,0,0,0-.112.28.386.386,0,0,0,.12.277l4.219,4.108-1,5.8a.435.435,0,0,0,.038.249.411.411,0,0,0,.234.2.368.368,0,0,0,.3-.032l5.22-2.737,5.216,2.734a.368.368,0,0,0,.184.049ZM39.65,1.386,42,6.138a.373.373,0,0,0,.293.215l5.242.77-3.795,3.7a.38.38,0,0,0-.112.35l.894,5.221-4.689-2.464a.368.368,0,0,0-.183-.049h-.086a.353.353,0,0,0-.094.037l-4.692,2.466.894-5.22a.379.379,0,0,0-.109-.349l-3.8-3.7,5.241-.759A.372.372,0,0,0,37.3,6.14Zm7.455,5.875-4.84-.711a.569.569,0,0,1-.446-.327L39.65,1.838,37.48,6.226a.569.569,0,0,1-.447.325l-4.837.7,3.5,3.418a.578.578,0,0,1,.168.53l-.826,4.819,4.331-2.276a.56.56,0,0,1,.277-.071h.1v.019a.556.556,0,0,1,.18.064l4.328,2.274-.826-4.82a.579.579,0,0,1,.171-.531Z"/>
    <path id="Pfad_170141" data-name="Pfad 170141" class="facts-2-3" d="M28.54,81.362v.22l.01.01Zm35.13-40.05c-1.84-5.92-7.18-8.38-8.77-9-3.76-1.45-8.72.54-13.51,2.46-.67.27-1.26.5-1.83.73l-.3.11-.23-.21a.642.642,0,0,0-.13-.1c-12.18-6.54-18.66-1.77-21.95,3.38-4.72,7.39.43,15.62,2.91,19.57a16.732,16.732,0,0,1,1.12,1.93,35.716,35.716,0,0,1,.71,3.56c1.81,10.35,3.53,16.85,6.46,17.32a3.047,3.047,0,0,0,.39.02v.01a5.818,5.818,0,0,0,4.07-1.75c3.07-2.9,4.4-8.29,4.4-10.41,0-2.97.16-5.14,2.32-5.9l.09-.03h.11c1.44.11,1.92.81,2.91,6.98a17.336,17.336,0,0,0,3.4,7.99c1.45,1.84,3.12,3.03,4.36,3.1,2.25.13,3.81-.89,5.69-6.55a59.465,59.465,0,0,0,1.99-9.83,27.152,27.152,0,0,1,.83-4.46l.07-.15c4.89-7.16,6.54-13.48,4.89-18.77M57.76,59.4c-.44.65-.67,2.2-1.09,5.11a59.607,59.607,0,0,1-1.94,9.6c-1.81,5.44-3.04,5.81-4.46,5.73-1.5-.08-5.57-3.6-6.61-10.05-1.02-6.28-1.57-7.89-4.28-8.03a.761.761,0,0,0-.21.03c-3.4,1.01-3.4,4.55-3.4,7.14,0,2.06-1.33,7-3.99,9.5a4.6,4.6,0,0,1-3.33,1.42h-.07l.01-.5-.14.48c-.6-.18-1.8-1.19-3.16-5.95-.96-3.38-1.66-7.39-2.18-10.32a33.892,33.892,0,0,0-.74-3.74,12.852,12.852,0,0,0-1.25-2.2c-2.53-4.05-7.23-11.54-2.93-18.28,4.19-6.57,10.34-7.8,18.8-3.74l1.07.52-1.12.4a15.916,15.916,0,0,1-4.37.92.7.7,0,0,0-.49.21.6.6,0,0,0-.15.45.616.616,0,0,0,.65.57c2.79-.09,6.04-1.38,9.47-2.76,4.57-1.83,9.3-3.73,12.61-2.45,1.46.56,6.36,2.82,8.04,8.21,1.53,4.93-.07,10.89-4.74,17.73"/>
    <path id="Pfad_170141_-_Kontur" data-name="Pfad 170141 - Kontur" class="facts-2-3" d="M28.661,81.844l-.221-.221v-.261l.2,0Zm-.221-.651v-.013c-.081,0-.171-.006-.3-.02-3-.482-4.731-7.016-6.547-17.4a35.707,35.707,0,0,0-.7-3.539,16.615,16.615,0,0,0-1.11-1.912,34.1,34.1,0,0,1-4.168-8.523c-1.216-4.194-.793-7.947,1.257-11.157a15.223,15.223,0,0,1,4.355-4.569,12.335,12.335,0,0,1,6.942-2.036,23.3,23.3,0,0,1,10.784,3.191.75.75,0,0,1,.153.117l.182.166.243-.089c.276-.112.561-.224.857-.342s.629-.249.971-.387l.009,0c3.632-1.456,7.389-2.962,10.64-2.962a8.137,8.137,0,0,1,2.934.5,16.6,16.6,0,0,1,4.318,2.528,13.5,13.5,0,0,1,4.511,6.535c1.659,5.317.011,11.659-4.9,18.849l-.063.135a27.056,27.056,0,0,0-.825,4.435,59.446,59.446,0,0,1-1.993,9.848A15.8,15.8,0,0,1,53.4,79.88a3.531,3.531,0,0,1-2.853,1.3h0c-.113,0-.232,0-.354-.011-1.265-.071-2.964-1.274-4.433-3.138A17.452,17.452,0,0,1,42.341,70c-.978-6.093-1.435-6.788-2.815-6.895h-.09l-.075.025c-2.09.735-2.252,2.87-2.252,5.805,0,2.127-1.338,7.561-4.431,10.483a5.925,5.925,0,0,1-4.137,1.777Zm-.277-48.971a12.139,12.139,0,0,0-6.832,2,15.025,15.025,0,0,0-4.3,4.51c-4.695,7.35.442,15.531,2.91,19.463a16.792,16.792,0,0,1,1.125,1.939l0,.012a35.11,35.11,0,0,1,.714,3.575,85.911,85.911,0,0,0,2.806,12.35c1.055,3.073,2.224,4.673,3.571,4.889a2.936,2.936,0,0,0,.374.019h.1v.007a5.726,5.726,0,0,0,3.9-1.717c3.052-2.883,4.371-8.242,4.371-10.34,0-3.018.171-5.215,2.387-5.994L39.4,62.9h.134a1.78,1.78,0,0,1,1.708,1.277,27.156,27.156,0,0,1,1.294,5.787,17.252,17.252,0,0,0,3.38,7.945c1.434,1.82,3.077,2.993,4.286,3.061.118.007.234.013.343.01,1.957,0,3.443-1.062,5.247-6.492a59.239,59.239,0,0,0,1.986-9.81,27.251,27.251,0,0,1,.833-4.475l.006-.016.078-.164c4.876-7.14,6.517-13.426,4.877-18.684a13.3,13.3,0,0,0-4.446-6.44,16.4,16.4,0,0,0-4.265-2.5A7.829,7.829,0,0,0,52,31.914c-3.213,0-6.951,1.5-10.566,2.947l-.009,0c-.342.138-.663.265-.971.387s-.579.23-.858.342l-.36.132-.275-.251a.556.556,0,0,0-.114-.088A23.1,23.1,0,0,0,28.163,32.223Zm.155,47.734-.016,0h-.024v-.007l-.057-.017c-.752-.226-1.923-1.453-3.227-6.018-.933-3.283-1.627-7.2-2.135-10.062l-.047-.268a33.6,33.6,0,0,0-.736-3.725,12.768,12.768,0,0,0-1.237-2.175l-.022-.035c-2.528-4.047-7.234-11.58-2.911-18.357a14.066,14.066,0,0,1,4.48-4.589,10.822,10.822,0,0,1,5.68-1.531,20.727,20.727,0,0,1,8.768,2.344l1.285.624-1.344.48a16.069,16.069,0,0,1-4.4.926.6.6,0,0,0-.423.178.506.506,0,0,0-.124.377.488.488,0,0,0,.175.35.5.5,0,0,0,.369.127c2.823-.091,6.186-1.444,9.439-2.753l.031-.012C45.359,34.4,48.993,32.944,52,32.944a6.925,6.925,0,0,1,2.5.425c1.471.564,6.4,2.828,8.1,8.274,1.537,4.952-.062,10.946-4.753,17.816-.435.642-.675,2.308-1.074,5.068a59.7,59.7,0,0,1-1.943,9.614,15.424,15.424,0,0,1-2.253,4.81,2.421,2.421,0,0,1-2.022,1c-.087,0-.181,0-.286-.009-.727-.039-2.148-.892-3.55-2.674a16.115,16.115,0,0,1-3.153-7.46,24.858,24.858,0,0,0-1.5-6.289,2.764,2.764,0,0,0-2.687-1.657.666.666,0,0,0-.18.026c-3.327.988-3.327,4.488-3.327,7.044,0,2.079-1.343,7.054-4.019,9.571a4.692,4.692,0,0,1-3.4,1.449h-.131Zm-.024-.633.2.03-.008.4a4.49,4.49,0,0,0,3.225-1.389l0,0c2.636-2.477,3.958-7.379,3.958-9.427,0-2.618,0-6.2,3.472-7.236a.867.867,0,0,1,.238-.034h.005a2.941,2.941,0,0,1,2.858,1.768c.6,1.2,1,3.159,1.516,6.346a15.915,15.915,0,0,0,3.112,7.368c1.364,1.733,2.721,2.562,3.4,2.6.1.006.191.008.275.008,1.158,0,2.343-.434,4.085-5.67a59.508,59.508,0,0,0,1.936-9.58c.416-2.885.646-4.474,1.107-5.154C62.332,52.528,63.922,46.592,62.4,41.7c-1.67-5.359-6.531-7.59-7.98-8.146A6.727,6.727,0,0,0,52,33.144c-2.964,0-6.581,1.448-10.078,2.849L41.887,36c-3.269,1.315-6.649,2.675-9.5,2.767H32.34a.716.716,0,0,1-.71-.665.7.7,0,0,1,.176-.524.8.8,0,0,1,.555-.242,15.874,15.874,0,0,0,4.345-.914l.9-.32-.856-.416a20.533,20.533,0,0,0-8.681-2.324,10.625,10.625,0,0,0-5.576,1.5A13.869,13.869,0,0,0,18.074,39.4a10.816,10.816,0,0,0-1.7,5.071,14,14,0,0,0,.6,4.972,33.385,33.385,0,0,0,4,8.1l.017.028a12.964,12.964,0,0,1,1.258,2.215l.005.015a33.769,33.769,0,0,1,.742,3.751l.047.264c.507,2.857,1.2,6.769,2.13,10.042,1.277,4.469,2.393,5.595,3,5.847Z"/>
  </g>
</svg>
